<svg aria-hidden="true" xmlns="http://www.w3.org/2000/svg" width="20" height="20" fill="currentColor" viewBox="0 0 20 20">
  <path fill-rule="evenodd" d="M2.25 4.997c0-.966.784-1.75 1.75-1.75h3.586c.464 0 .909.185 1.237.513l1.414 1.414a.25.25 0 0 0 .177.073H16c.966 0 1.75.784 1.75 1.75v8a1.75 1.75 0 0 1-1.75 1.75H4a1.75 1.75 0 0 1-1.75-1.75zM4 4.747a.25.25 0 0 0-.25.25v10c0 .138.112.25.25.25h12a.25.25 0 0 0 .25-.25v-8a.25.25 0 0 0-.25-.25h-5.586a1.75 1.75 0 0 1-1.237-.512L7.763 4.82a.25.25 0 0 0-.177-.074z" clip-rule="evenodd"></path>
</svg>