<svg aria-hidden="true" xmlns="http://www.w3.org/2000/svg" width="20" height="20" fill="currentColor" viewBox="0 0 20 20">
  <path fill-rule="evenodd" d="M4 3.247a1.75 1.75 0 0 0-1.75 1.75v10c0 .967.784 1.75 1.75 1.75h12.623a1.25 1.25 0 0 0 1.202-.906l1.714-6a1.25 1.25 0 0 0-1.202-1.594h-.587v-1.25A1.75 1.75 0 0 0 16 5.247h-5.586a.25.25 0 0 1-.177-.073L8.823 3.76a1.75 1.75 0 0 0-1.237-.513zm12.25 5v-1.25a.25.25 0 0 0-.25-.25h-5.586a1.75 1.75 0 0 1-1.237-.512L7.763 4.82a.25.25 0 0 0-.177-.074H4a.25.25 0 0 0-.25.25v10c0 .138.112.25.25.25h.006a.58.58 0 0 0 .548-.417l1.621-5.676a1.25 1.25 0 0 1 1.202-.907zm-10.256 7h10.44l1.572-5.5H7.566l-1.57 5.495z" clip-rule="evenodd"></path>
</svg>