<svg xmlns="http://www.w3.org/2000/svg" viewBox="0 0 20 20" width="1em" height="1em" focusable="false"><path d="M6.755 2H4a2 2 0 0 0-2 2v2.75a.75.75 0 0 0 1.5 0V4a.5.5 0 0 1 .5-.5h2.755a.75.75 0 0 0 0-1.5ZM13.253 2H16a2 2 0 0 1 2 2v2.75a.75.75 0 0 1-1.5 0V4a.5.5 0 0 0-.5-.5h-2.75a.75.75 0 0 1 0-1.5h.003ZM13.253 16.5H16a.5.5 0 0 0 .5-.5v-2.75a.75.75 0 0 1 1.5 0V16a2 2 0 0 1-2 2h-2.75a.75.75 0 0 1 0-1.5h.003ZM3.5 13.25V16a.5.5 0 0 0 .5.5h2.755a.75.75 0 0 1 0 1.5H4a2 2 0 0 1-2-2v-2.75a.75.75 0 0 1 1.5 0Z"/></svg>