<svg xmlns="http://www.w3.org/2000/svg" viewBox="0 0 20 20" width="1em" height="1em" focusable="false"><path fill-rule="evenodd" clip-rule="evenodd" d="M10 18a8.002 8.002 0 0 0 0-16 8 8 0 1 0 0 16Zm2.297-9.917A6.485 6.485 0 0 1 10 8.5a6.486 6.486 0 0 1-2.297-.417c.243-1.113.688-2.084 1.254-2.84A5.025 5.025 0 0 1 10 4.194c.37.27.72.62 1.043 1.05.566.755 1.011 1.726 1.254 2.839ZM8.27 3.733c-.881.933-1.56 2.19-1.939 3.634A6.537 6.537 0 0 1 4.876 6a6.506 6.506 0 0 1 3.395-2.267ZM6 10c0-.353.017-.7.05-1.041a8.035 8.035 0 0 1-1.99-1.6 6.452 6.452 0 0 0-.451 1.45c.218.802.762 1.58 1.634 2.234.266.2.56.384.876.55A10.637 10.637 0 0 1 6 10Zm1.5 0c0 .788.099 1.536.276 2.224A8.93 8.93 0 0 0 10 12.5c.788 0 1.536-.099 2.224-.276a8.932 8.932 0 0 0 .268-2.62A7.992 7.992 0 0 1 10 10c-.87 0-1.707-.139-2.492-.396A9.34 9.34 0 0 0 7.5 10Zm-3.767 1.73c.758.715 1.73 1.298 2.843 1.694.396 1.113.979 2.085 1.695 2.843a6.513 6.513 0 0 1-4.538-4.538Zm5.224 3.027c.322.429.673.778 1.043 1.049.37-.27.72-.62 1.043-1.05.2-.265.384-.558.55-.875a10.635 10.635 0 0 1-3.186 0c.166.317.35.61.55.876Zm4.924-3.164a10.635 10.635 0 0 0 .069-2.634 8.035 8.035 0 0 0 1.99-1.6c.205.457.357.943.451 1.45-.218.802-.762 1.58-1.634 2.234-.266.2-.56.384-.876.55Zm-2.152 4.674c.716-.758 1.3-1.73 1.695-2.843 1.113-.396 2.085-.979 2.843-1.695a6.513 6.513 0 0 1-4.538 4.538Zm1.939-8.9c-.378-1.445-1.058-2.701-1.939-3.634A6.506 6.506 0 0 1 15.124 6a6.536 6.536 0 0 1-1.457 1.367Z"/></svg>